<svg xmlns="http://www.w3.org/2000/svg" viewBox="0 0 253.71 31.81"><defs><style>.cls-1{fill:#fff;}</style></defs><title>LogoHCAsset 3</title><g id="Layer_2" data-name="Layer 2"><g id="Layer_1-2" data-name="Layer 1"><path class="cls-1" d="M6.35,11.84A5.14,5.14,0,0,1,3.07,11,3.3,3.3,0,0,1,2,8.31a3.35,3.35,0,0,1,1-2.72,5.14,5.14,0,0,1,3.28-.85,5.2,5.2,0,0,1,3.27.85,3.32,3.32,0,0,1,1,2.72,3.28,3.28,0,0,1-1,2.68A5.2,5.2,0,0,1,6.35,11.84Zm3.7,2.52V36.11H2.65V14.36Z" transform="translate(-2.04 -4.74)"/><path class="cls-1" d="M24.45,36.55a17,17,0,0,1-6.07-1.07,12.18,12.18,0,0,1-4.67-3.06l3.48-4.09a9.16,9.16,0,0,0,2.91,2.32,8.43,8.43,0,0,0,4,.94,5.82,5.82,0,0,0,2.27-.37A1.27,1.27,0,0,0,27.24,30a1.23,1.23,0,0,0-.44-1,4.39,4.39,0,0,0-1.74-.67l-3-.57c-2.76-.55-4.71-1.37-5.87-2.46A5.56,5.56,0,0,1,14.45,21a5.9,5.9,0,0,1,1.1-3.4A8.06,8.06,0,0,1,19,15a13.79,13.79,0,0,1,5.76-1.05,16.31,16.31,0,0,1,5.83,1,9.49,9.49,0,0,1,4.05,2.79l-3.57,4a6.7,6.7,0,0,0-2.69-2.07A8.35,8.35,0,0,0,25,18.88a6.55,6.55,0,0,0-1.72.2,2.21,2.21,0,0,0-1.07.57,1.2,1.2,0,0,0-.35.84,1.19,1.19,0,0,0,.55,1,5.19,5.19,0,0,0,2,.72l4,.78a8.52,8.52,0,0,1,4.83,2.22,5.62,5.62,0,0,1,1.48,3.92,6.72,6.72,0,0,1-1.13,3.76,7.47,7.47,0,0,1-3.4,2.7A14.47,14.47,0,0,1,24.45,36.55Z" transform="translate(-2.04 -4.74)"/><path class="cls-1" d="M35.94,36.11,46,7.4h9l10,28.71h-7.7L51.73,17.67l-1.26-4.53h-.08l-1.18,4.48L43.47,36.11Zm6.57-6.48V24.54h16v5.09Z" transform="translate(-2.04 -4.74)"/><path class="cls-1" d="M80.58,14.36h7.66L80.41,36.11H71.58L63.74,14.36h7.79L76,30.94Z" transform="translate(-2.04 -4.74)"/><path class="cls-1" d="M102.51,22.32a3.33,3.33,0,0,0-.85-2.41,3,3,0,0,0-2.28-.9,4.16,4.16,0,0,0-2.46.72,4,4,0,0,0-1.41,2.55L89.24,20.8a7.81,7.81,0,0,1,3.22-5c1.74-1.24,4.19-1.87,7.35-1.87a14.1,14.1,0,0,1,5.42.94,7.3,7.3,0,0,1,3.44,2.78,8.2,8.2,0,0,1,1.2,4.55v8c0,1.14.5,1.7,1.52,1.7a4,4,0,0,0,1.26-.17l-.43,4.22a7.58,7.58,0,0,1-3.18.61,7.79,7.79,0,0,1-3-.55A4.42,4.42,0,0,1,104,34.31a5,5,0,0,1-.74-2.81v-.26l.83-.3A4.58,4.58,0,0,1,103,34.07a6.68,6.68,0,0,1-2.87,1.87,11.1,11.1,0,0,1-3.68.61,9.8,9.8,0,0,1-3.87-.7,5.56,5.56,0,0,1-2.55-2,5.78,5.78,0,0,1-.89-3.28,5.56,5.56,0,0,1,1.41-3.9A8,8,0,0,1,95,24.5l8.23-1.7,0,3.92L99,27.59a4.48,4.48,0,0,0-1.94.76,1.79,1.79,0,0,0-.63,1.5,1.62,1.62,0,0,0,.7,1.44,2.88,2.88,0,0,0,1.65.47,4.72,4.72,0,0,0,1.41-.21,3.4,3.4,0,0,0,1.2-.68,3.27,3.27,0,0,0,.83-1.15,4.21,4.21,0,0,0,.3-1.66Z" transform="translate(-2.04 -4.74)"/><path class="cls-1" d="M119.26,11.84A5.16,5.16,0,0,1,116,11a3.3,3.3,0,0,1-1-2.68,3.35,3.35,0,0,1,1-2.72,6.73,6.73,0,0,1,6.55,0,3.32,3.32,0,0,1,1,2.72,3.28,3.28,0,0,1-1,2.68A5.2,5.2,0,0,1,119.26,11.84Zm3.7,2.52V36.11h-7.39V14.36Z" transform="translate(-2.04 -4.74)"/><path class="cls-1" d="M135.54,5.13V28.72a3.34,3.34,0,0,0,.48,2,1.9,1.9,0,0,0,1.61.61,6.45,6.45,0,0,0,1.08-.08q.43-.09,1-.27l-.48,4.44a7.37,7.37,0,0,1-2.05.79,10.64,10.64,0,0,1-2.48.3q-3.48,0-5-1.61t-1.57-5.27V5.13Z" transform="translate(-2.04 -4.74)"/><path class="cls-1" d="M154.94,22.32a3.33,3.33,0,0,0-.85-2.41,3,3,0,0,0-2.28-.9,4.16,4.16,0,0,0-2.46.72,4,4,0,0,0-1.41,2.55l-6.27-1.48a7.81,7.81,0,0,1,3.22-5c1.74-1.24,4.19-1.87,7.35-1.87a14.1,14.1,0,0,1,5.42.94,7.3,7.3,0,0,1,3.44,2.78,8.2,8.2,0,0,1,1.2,4.55v8c0,1.14.5,1.7,1.52,1.7a4,4,0,0,0,1.26-.17l-.43,4.22a7.58,7.58,0,0,1-3.18.61,7.79,7.79,0,0,1-3-.55,4.42,4.42,0,0,1-2.05-1.65,5,5,0,0,1-.74-2.81v-.26l.83-.3a4.58,4.58,0,0,1-1.11,3.13,6.68,6.68,0,0,1-2.87,1.87,11.1,11.1,0,0,1-3.68.61,9.8,9.8,0,0,1-3.87-.7,5.56,5.56,0,0,1-2.55-2,5.78,5.78,0,0,1-.89-3.28,5.53,5.53,0,0,1,1.42-3.9,7.93,7.93,0,0,1,4.46-2.15l8.22-1.7,0,3.92-4.18.87a4.48,4.48,0,0,0-1.94.76,1.79,1.79,0,0,0-.63,1.5,1.62,1.62,0,0,0,.7,1.44,2.88,2.88,0,0,0,1.65.47,4.72,4.72,0,0,0,1.41-.21,3.4,3.4,0,0,0,1.2-.68,3.27,3.27,0,0,0,.83-1.15,4.21,4.21,0,0,0,.3-1.66Z" transform="translate(-2.04 -4.74)"/><path class="cls-1" d="M182,36.55a7.28,7.28,0,0,1-3.76-1A7.66,7.66,0,0,1,175.52,33a10,10,0,0,1-1.35-3.81l.7-.91-.39,7.87H168v-31h7.39V21.19l-.69-1a8.47,8.47,0,0,1,2.48-4.46,7,7,0,0,1,5-1.77,7.81,7.81,0,0,1,4.51,1.35,8.84,8.84,0,0,1,3.09,3.9,15.33,15.33,0,0,1,1.11,6.15,14.78,14.78,0,0,1-1.13,6.05,8.78,8.78,0,0,1-3.14,3.85A8.26,8.26,0,0,1,182,36.55Zm-2.56-5.44a3.59,3.59,0,0,0,3-1.41,7.39,7.39,0,0,0,1.09-4.46,7.37,7.37,0,0,0-1.09-4.46,3.57,3.57,0,0,0-3-1.42,3.33,3.33,0,0,0-2.16.72,4.56,4.56,0,0,0-1.37,2,9.26,9.26,0,0,0-.48,3.18,9.26,9.26,0,0,0,.48,3.18,4.15,4.15,0,0,0,1.39,2A3.5,3.5,0,0,0,179.4,31.11Z" transform="translate(-2.04 -4.74)"/><path class="cls-1" d="M202.59,5.13V28.72a3.34,3.34,0,0,0,.48,2,1.9,1.9,0,0,0,1.61.61,6.45,6.45,0,0,0,1.08-.08q.44-.09,1.05-.27l-.48,4.44a7.25,7.25,0,0,1-2.05.79,10.64,10.64,0,0,1-2.48.3q-3.48,0-5-1.61t-1.57-5.27V5.13Z" transform="translate(-2.04 -4.74)"/><path class="cls-1" d="M220.08,36.55a13.4,13.4,0,0,1-6.2-1.35,9.48,9.48,0,0,1-4-3.85,12.27,12.27,0,0,1-1.41-6.11,12.31,12.31,0,0,1,1.41-6.12,9.64,9.64,0,0,1,4-3.85,12.68,12.68,0,0,1,5.94-1.35,11.88,11.88,0,0,1,5.83,1.33,9.13,9.13,0,0,1,3.68,3.66,10.78,10.78,0,0,1,1.29,5.33c0,.55,0,1.08,0,1.58a12.12,12.12,0,0,1-.13,1.29H213.16v-4h14l-3.57,1.4a7.23,7.23,0,0,0-.93-4,3.27,3.27,0,0,0-2.9-1.39,4.25,4.25,0,0,0-2.37.65,4,4,0,0,0-1.48,2,10.56,10.56,0,0,0-.5,3.54A8.83,8.83,0,0,0,216,28.8a4,4,0,0,0,1.61,1.92,4.88,4.88,0,0,0,2.52.61,4.72,4.72,0,0,0,2.63-.65,3.91,3.91,0,0,0,1.46-1.83l5.92,2A6.9,6.9,0,0,1,228,34a10.09,10.09,0,0,1-3.55,1.94A14.47,14.47,0,0,1,220.08,36.55Z" transform="translate(-2.04 -4.74)"/><path class="cls-1" d="M244.58,7a17.38,17.38,0,0,1,5.72.89,8.77,8.77,0,0,1,4,2.68A6.8,6.8,0,0,1,255.76,15a7.87,7.87,0,0,1-1.11,4.39,7,7,0,0,1-3,2.57,13.51,13.51,0,0,1-4.16,1.13l-.43,3.74h-6.53l0-6.61a18.76,18.76,0,0,0,4.25-.81A4.92,4.92,0,0,0,247.1,18a3.1,3.1,0,0,0,.7-2,2.76,2.76,0,0,0-.92-2.22,4.29,4.29,0,0,0-2.83-.78,3.94,3.94,0,0,0-3,1.11,5.7,5.7,0,0,0-1.4,3.28l-7.13-2.48a10.58,10.58,0,0,1,2-4.07A9.43,9.43,0,0,1,238.42,8,16.15,16.15,0,0,1,244.58,7Zm-.7,22.24a4.58,4.58,0,0,1,3.07.95,3.38,3.38,0,0,1,1.11,2.7A3.34,3.34,0,0,1,247,35.51a4.58,4.58,0,0,1-3.07,1,4.5,4.5,0,0,1-3-1,3.34,3.34,0,0,1-1.11-2.66,3.38,3.38,0,0,1,1.11-2.7A4.5,4.5,0,0,1,243.88,29.2Z" transform="translate(-2.04 -4.74)"/></g></g></svg>